<svg width="639" height="200" viewBox="0 0 639 200" fill="none" xmlns="http://www.w3.org/2000/svg">
<path d="M218.233 115.462V135H204.351V77.4141H227.33C231.733 77.4141 235.622 78.2314 238.997 79.8662C242.398 81.4746 245.022 83.7817 246.868 86.7876C248.74 89.7671 249.676 93.1553 249.676 96.9521C249.676 102.568 247.659 107.064 243.625 110.439C239.617 113.788 234.106 115.462 227.092 115.462H218.233ZM218.233 104.744H227.33C230.019 104.744 232.062 104.071 233.46 102.727C234.884 101.382 235.596 99.4834 235.596 97.0312C235.596 94.3418 234.871 92.1929 233.42 90.5845C231.97 88.9761 229.993 88.1587 227.488 88.1323H218.233V104.744ZM280.535 135C280.06 134.13 279.638 132.851 279.269 131.164C276.817 134.249 273.389 135.791 268.986 135.791C264.952 135.791 261.524 134.578 258.703 132.152C255.882 129.7 254.471 126.628 254.471 122.937C254.471 118.296 256.185 114.79 259.613 112.417C263.04 110.043 268.024 108.857 274.563 108.857H278.676V106.603C278.676 102.674 276.975 100.709 273.574 100.709C270.41 100.709 268.828 102.265 268.828 105.376H255.499C255.499 101.237 257.253 97.875 260.759 95.291C264.293 92.707 268.788 91.415 274.246 91.415C279.704 91.415 284.015 92.7466 287.179 95.4097C290.343 98.0728 291.965 101.725 292.044 106.365V125.31C292.097 129.239 292.703 132.245 293.863 134.328V135H280.535ZM272.19 126.299C273.851 126.299 275.222 125.943 276.303 125.231C277.41 124.519 278.201 123.715 278.676 122.818V115.976H274.8C270.159 115.976 267.839 118.059 267.839 122.225C267.839 123.438 268.248 124.427 269.065 125.191C269.883 125.93 270.924 126.299 272.19 126.299ZM316.338 116.332L323.457 92.2061H337.735L320.293 142.159L319.541 143.978C317.063 149.515 312.686 152.284 306.411 152.284C304.67 152.284 302.838 152.02 300.913 151.493V141.961H302.653C304.525 141.961 305.949 141.684 306.925 141.13C307.927 140.603 308.665 139.641 309.14 138.243L310.207 135.396L295.336 92.2061H309.575L316.338 116.332ZM355.7 135H342.332V92.2061H355.7V135ZM341.541 81.1714C341.541 79.2729 342.227 77.7173 343.598 76.5044C344.969 75.2915 346.749 74.6851 348.937 74.6851C351.126 74.6851 352.905 75.2915 354.277 76.5044C355.648 77.7173 356.333 79.2729 356.333 81.1714C356.333 83.0698 355.648 84.6255 354.277 85.8384C352.905 87.0513 351.126 87.6577 348.937 87.6577C346.749 87.6577 344.969 87.0513 343.598 85.8384C342.227 84.6255 341.541 83.0698 341.541 81.1714ZM376.593 92.2061L377.028 97.229C379.981 93.353 384.055 91.415 389.249 91.415C393.705 91.415 397.027 92.7466 399.216 95.4097C401.431 98.0728 402.578 102.081 402.657 107.433V135H389.288V107.987C389.288 105.825 388.853 104.243 387.983 103.241C387.113 102.212 385.531 101.698 383.237 101.698C380.627 101.698 378.689 102.727 377.423 104.783V135H364.095V92.2061H376.593ZM408.915 113.287C408.915 108.962 409.627 105.139 411.051 101.817C412.475 98.4946 414.518 95.937 417.181 94.144C419.844 92.3247 422.942 91.415 426.476 91.415C430.932 91.415 434.412 92.918 436.917 95.9238L437.392 92.2061H449.494V133.378C449.494 137.149 448.611 140.418 446.844 143.187C445.104 145.982 442.573 148.118 439.251 149.594C435.928 151.097 432.079 151.849 427.702 151.849C424.564 151.849 421.519 151.255 418.566 150.069C415.639 148.882 413.398 147.34 411.842 145.441L417.419 137.61C419.897 140.537 423.167 142 427.227 142C433.133 142 436.087 138.968 436.087 132.904V131.559C433.529 134.38 430.299 135.791 426.397 135.791C421.176 135.791 416.957 133.8 413.74 129.819C410.524 125.811 408.915 120.458 408.915 113.761V113.287ZM422.283 114.117C422.283 117.624 422.942 120.406 424.261 122.462C425.579 124.493 427.425 125.508 429.798 125.508C432.672 125.508 434.768 124.545 436.087 122.621V104.625C434.795 102.674 432.725 101.698 429.877 101.698C427.504 101.698 425.645 102.766 424.3 104.902C422.956 107.011 422.283 110.083 422.283 114.117ZM503.293 88.1323H486.009V135H472.127V88.1323H455.159V77.4141H503.293V88.1323ZM499.07 113.208C499.07 108.936 499.901 105.139 501.562 101.817C503.223 98.4683 505.609 95.8975 508.721 94.1045C511.832 92.3115 515.484 91.415 519.676 91.415C526.084 91.415 531.133 93.4058 534.824 97.3872C538.516 101.342 540.361 106.734 540.361 113.563V114.038C540.361 120.709 538.502 126.009 534.785 129.938C531.093 133.84 526.084 135.791 519.755 135.791C513.665 135.791 508.773 133.972 505.082 130.333C501.391 126.668 499.4 121.711 499.11 115.462L499.07 113.208ZM512.399 114.038C512.399 117.993 513.019 120.894 514.258 122.739C515.497 124.585 517.33 125.508 519.755 125.508C524.501 125.508 526.927 121.856 527.033 114.552V113.208C527.033 105.535 524.581 101.698 519.676 101.698C515.22 101.698 512.808 105.007 512.439 111.625L512.399 114.038ZM558.881 92.2061L559.316 97.229C562.269 93.353 566.343 91.415 571.537 91.415C575.993 91.415 579.315 92.7466 581.504 95.4097C583.719 98.0728 584.865 102.081 584.945 107.433V135H571.576V107.987C571.576 105.825 571.141 104.243 570.271 103.241C569.401 102.212 567.819 101.698 565.525 101.698C562.915 101.698 560.977 102.727 559.711 104.783V135H546.383V92.2061H558.881ZM613.47 135.791C606.905 135.791 601.592 133.84 597.531 129.938C593.471 126.009 591.44 120.907 591.44 114.631V113.524C591.44 109.147 592.245 105.284 593.853 101.936C595.488 98.5869 597.861 96.0029 600.972 94.1836C604.083 92.3379 607.775 91.415 612.046 91.415C618.058 91.415 622.804 93.2871 626.285 97.0312C629.765 100.749 631.505 105.943 631.505 112.614V117.795H605.006C605.481 120.195 606.522 122.08 608.131 123.451C609.739 124.822 611.822 125.508 614.38 125.508C618.599 125.508 621.895 124.031 624.268 121.078L630.358 128.276C628.697 130.57 626.337 132.403 623.279 133.774C620.247 135.119 616.977 135.791 613.47 135.791ZM611.967 101.698C608.065 101.698 605.745 104.282 605.006 109.45H618.454V108.422C618.506 106.286 617.966 104.638 616.832 103.478C615.698 102.292 614.077 101.698 611.967 101.698Z" fill="#09535E" fill-opacity="0.85"/>
<path fill-rule="evenodd" clip-rule="evenodd" d="M37.0435 173.721C30.7252 173.721 25.5556 167.977 25.5556 160.957V116.332H54.4713V116.281H71.8517C76.332 116.154 80.123 111.814 80.123 106.708C80.123 101.475 76.2171 97.135 71.5071 97.135H48.5314V97.144H25.5556V84.3707C25.5556 77.3503 30.7252 71.6064 37.0435 71.6064H71.5071C80.2379 71.6064 87.705 75.0528 93.7936 81.9455C99.997 88.7106 103.099 97.0074 103.099 106.708C103.099 116.281 100.112 124.578 94.0234 131.343C87.9348 138.109 80.5825 141.683 71.9666 141.81H48.5314V160.957C48.5314 167.977 43.3618 173.721 37.0435 173.721Z" fill="#278D9C"/>
<path fill-rule="evenodd" clip-rule="evenodd" d="M117.579 56.7902C130.271 70.4877 136.667 87.5472 136.667 106.94C136.667 126.006 130.539 143.049 118.043 156.79L100.301 138.242C108.072 129.698 111.887 119.409 111.887 106.94C111.887 94.375 107.958 84.1029 100 75.5146L117.579 56.7902Z" fill="#278D9C"/>
<path fill-rule="evenodd" clip-rule="evenodd" d="M144.743 33.3334C163.024 53.6132 172.223 78.7589 172.223 107.619C172.223 136.028 163.395 161.158 145.414 181.481L128.291 162.893C141.685 147.753 148.248 129.391 148.248 107.619C148.248 85.6273 141.464 67.2815 127.778 52.0992L144.743 33.3334Z" fill="#09535E"/>
<path fill-rule="evenodd" clip-rule="evenodd" d="M25.5556 141.916H48.5314V160.957C48.5314 167.977 43.3618 173.721 37.0435 173.721C30.7252 173.721 25.5556 167.977 25.5556 160.957V141.916Z" fill="#278D9C"/>
</svg>
