<svg width="428" height="79" viewBox="0 0 428 79" fill="none" xmlns="http://www.w3.org/2000/svg">
<path d="M14.2329 41.4619V61H0.350586V3.41406H23.3296C27.7329 3.41406 31.6221 4.23145 34.9971 5.86621C38.3984 7.47461 41.022 9.78174 42.8677 12.7876C44.7397 15.7671 45.6758 19.1553 45.6758 22.9521C45.6758 28.5684 43.6587 33.064 39.6245 36.439C35.6167 39.7876 30.106 41.4619 23.0923 41.4619H14.2329ZM14.2329 30.7437H23.3296C26.019 30.7437 28.0625 30.0713 29.46 28.7266C30.8838 27.3818 31.5957 25.4834 31.5957 23.0312C31.5957 20.3418 30.8706 18.1929 29.4204 16.5845C27.9702 14.9761 25.9927 14.1587 23.4878 14.1323H14.2329V30.7437ZM76.5349 61C76.0603 60.1299 75.6384 58.8511 75.2693 57.1636C72.8171 60.2485 69.3894 61.791 64.9861 61.791C60.9519 61.791 57.5241 60.5781 54.7029 58.1523C51.8816 55.7002 50.4709 52.6284 50.4709 48.937C50.4709 44.2964 52.1848 40.7896 55.6125 38.4165C59.0403 36.0435 64.0237 34.8569 70.5627 34.8569H74.676V32.6025C74.676 28.6738 72.9753 26.7095 69.5739 26.7095C66.4099 26.7095 64.8279 28.2651 64.8279 31.3765H51.4992C51.4992 27.2368 53.2527 23.875 56.7595 21.291C60.2927 18.707 64.7883 17.415 70.2463 17.415C75.7043 17.415 80.0154 18.7466 83.1794 21.4097C86.3435 24.0728 87.9651 27.7246 88.0442 32.3652V51.3101C88.0969 55.2388 88.7033 58.2446 89.8635 60.3276V61H76.5349ZM68.1897 52.2988C69.8508 52.2988 71.2219 51.9429 72.3029 51.231C73.4104 50.519 74.2014 49.7148 74.676 48.8184V41.9761H70.8C66.1594 41.9761 63.8391 44.0591 63.8391 48.2251C63.8391 49.438 64.2478 50.4268 65.0652 51.1914C65.8825 51.9297 66.924 52.2988 68.1897 52.2988ZM112.338 42.332L119.457 18.2061H133.735L116.293 68.1587L115.541 69.978C113.063 75.5151 108.686 78.2837 102.411 78.2837C100.67 78.2837 98.8378 78.02 96.913 77.4927V67.9609H98.6533C100.525 67.9609 101.949 67.6841 102.925 67.1304C103.927 66.603 104.665 65.6406 105.14 64.2432L106.207 61.3955L91.3364 18.2061H105.575L112.338 42.332ZM151.7 61H138.332V18.2061H151.7V61ZM137.541 7.17139C137.541 5.27295 138.227 3.71729 139.598 2.50439C140.969 1.2915 142.749 0.685059 144.937 0.685059C147.126 0.685059 148.905 1.2915 150.277 2.50439C151.648 3.71729 152.333 5.27295 152.333 7.17139C152.333 9.06982 151.648 10.6255 150.277 11.8384C148.905 13.0513 147.126 13.6577 144.937 13.6577C142.749 13.6577 140.969 13.0513 139.598 11.8384C138.227 10.6255 137.541 9.06982 137.541 7.17139ZM172.593 18.2061L173.028 23.229C175.981 19.353 180.055 17.415 185.249 17.415C189.705 17.415 193.027 18.7466 195.216 21.4097C197.431 24.0728 198.578 28.0806 198.657 33.4331V61H185.288V33.9868C185.288 31.8247 184.853 30.2427 183.983 29.2407C183.113 28.2124 181.531 27.6982 179.237 27.6982C176.627 27.6982 174.689 28.7266 173.423 30.7832V61H160.095V18.2061H172.593ZM204.915 39.2866C204.915 34.9624 205.627 31.1392 207.051 27.8169C208.475 24.4946 210.518 21.937 213.181 20.144C215.844 18.3247 218.942 17.415 222.476 17.415C226.932 17.415 230.412 18.918 232.917 21.9238L233.392 18.2061H245.494V59.3784C245.494 63.1489 244.611 66.4185 242.844 69.187C241.104 71.9819 238.573 74.1177 235.251 75.5942C231.928 77.0972 228.079 77.8486 223.702 77.8486C220.564 77.8486 217.519 77.2554 214.566 76.0688C211.639 74.8823 209.398 73.3398 207.842 71.4414L213.419 63.6104C215.897 66.5371 219.167 68.0005 223.227 68.0005C229.133 68.0005 232.087 64.9683 232.087 58.9038V57.5591C229.529 60.3804 226.299 61.791 222.397 61.791C217.176 61.791 212.957 59.8003 209.74 55.8188C206.524 51.811 204.915 46.4585 204.915 39.7612V39.2866ZM218.283 40.1172C218.283 43.624 218.942 46.4058 220.261 48.4624C221.579 50.4927 223.425 51.5078 225.798 51.5078C228.672 51.5078 230.768 50.5454 232.087 48.6206V30.625C230.795 28.6738 228.725 27.6982 225.877 27.6982C223.504 27.6982 221.645 28.7661 220.3 30.9019C218.956 33.0112 218.283 36.083 218.283 40.1172ZM299.293 14.1323H282.009V61H268.127V14.1323H251.159V3.41406H299.293V14.1323ZM295.07 39.2075C295.07 34.936 295.901 31.1392 297.562 27.8169C299.223 24.4683 301.609 21.8975 304.721 20.1045C307.832 18.3115 311.484 17.415 315.676 17.415C322.084 17.415 327.133 19.4058 330.824 23.3872C334.516 27.3423 336.361 32.7344 336.361 39.5635V40.0381C336.361 46.709 334.502 52.0088 330.785 55.9375C327.093 59.8398 322.084 61.791 315.755 61.791C309.665 61.791 304.773 59.9717 301.082 56.333C297.391 52.668 295.4 47.7109 295.11 41.4619L295.07 39.2075ZM308.399 40.0381C308.399 43.9932 309.019 46.8936 310.258 48.7393C311.497 50.585 313.33 51.5078 315.755 51.5078C320.501 51.5078 322.927 47.856 323.033 40.5522V39.2075C323.033 31.5347 320.581 27.6982 315.676 27.6982C311.22 27.6982 308.808 31.0073 308.439 37.6255L308.399 40.0381ZM354.881 18.2061L355.316 23.229C358.269 19.353 362.343 17.415 367.537 17.415C371.993 17.415 375.315 18.7466 377.504 21.4097C379.719 24.0728 380.865 28.0806 380.945 33.4331V61H367.576V33.9868C367.576 31.8247 367.141 30.2427 366.271 29.2407C365.401 28.2124 363.819 27.6982 361.525 27.6982C358.915 27.6982 356.977 28.7266 355.711 30.7832V61H342.383V18.2061H354.881ZM409.47 61.791C402.905 61.791 397.592 59.8398 393.531 55.9375C389.471 52.0088 387.44 46.9067 387.44 40.6313V39.5239C387.44 35.147 388.245 31.2842 389.853 27.9355C391.488 24.5869 393.861 22.0029 396.972 20.1836C400.083 18.3379 403.775 17.415 408.046 17.415C414.058 17.415 418.804 19.2871 422.285 23.0312C425.765 26.749 427.505 31.9434 427.505 38.6143V43.7954H401.006C401.481 46.1948 402.522 48.0801 404.131 49.4512C405.739 50.8223 407.822 51.5078 410.38 51.5078C414.599 51.5078 417.895 50.0312 420.268 47.0781L426.358 54.2764C424.697 56.5703 422.337 58.4028 419.279 59.7739C416.247 61.1187 412.977 61.791 409.47 61.791ZM407.967 27.6982C404.065 27.6982 401.745 30.2822 401.006 35.4502H414.454V34.4219C414.506 32.2861 413.966 30.6382 412.832 29.478C411.698 28.2915 410.077 27.6982 407.967 27.6982Z" fill="#09535E" fill-opacity="0.85"/>
</svg>
