<svg width="27" height="35" viewBox="0 0 27 35" fill="none" xmlns="http://www.w3.org/2000/svg">
<path d="M5.43 15.1472C7.59 20.65 11.07 25.1417 15.315 27.9611L18.615 23.6833C19.02 23.1583 19.62 22.9833 20.145 23.2167C21.825 23.9361 23.64 24.325 25.5 24.325C26.325 24.325 27 25.2 27 26.2694V33.0556C27 34.125 26.325 35 25.5 35C11.415 35 0 20.2028 0 1.94444C0 0.875 0.675 0 1.5 0H6.75C7.575 0 8.25 0.875 8.25 1.94444C8.25 4.375 8.55 6.70833 9.105 8.88611C9.27 9.56667 9.15 10.325 8.73 10.8694L5.43 15.1472Z" fill="white"/>
</svg>
