<svg width="43" height="47" viewBox="0 0 43 47" fill="none" xmlns="http://www.w3.org/2000/svg">
<path d="M38.125 5.00004H28.1975C27.2 2.29337 24.5875 0.333374 21.5 0.333374C18.4125 0.333374 15.8 2.29337 14.8025 5.00004H4.875C2.2625 5.00004 0.125 7.10004 0.125 9.66671V42.3334C0.125 44.9 2.2625 47 4.875 47H38.125C40.7375 47 42.875 44.9 42.875 42.3334V9.66671C42.875 7.10004 40.7375 5.00004 38.125 5.00004ZM21.5 5.00004C22.8062 5.00004 23.875 6.05004 23.875 7.33337C23.875 8.61671 22.8062 9.66671 21.5 9.66671C20.1938 9.66671 19.125 8.61671 19.125 7.33337C19.125 6.05004 20.1938 5.00004 21.5 5.00004ZM26.25 37.6667H9.625V33H26.25V37.6667ZM33.375 28.3334H9.625V23.6667H33.375V28.3334ZM33.375 19H9.625V14.3334H33.375V19Z" fill="white"/>
</svg>
