<svg width="48" height="67" viewBox="0 0 48 67" fill="none" xmlns="http://www.w3.org/2000/svg">
<path d="M13.4993 26.5933V14.75C13.4993 10.38 17.046 6.83333 21.416 6.83333C25.786 6.83333 29.3327 10.38 29.3327 14.75V26.5933C33.1643 24.0283 35.666 19.69 35.666 14.75C35.666 6.865 29.301 0.5 21.416 0.5C13.531 0.5 7.16602 6.865 7.16602 14.75C7.16602 19.69 9.66768 24.0283 13.4993 26.5933ZM44.6594 41.255L30.2827 34.0983C29.7444 33.8767 29.1744 33.75 28.5727 33.75H26.166V14.75C26.166 12.1217 24.0443 10 21.416 10C18.7877 10 16.666 12.1217 16.666 14.75V48.76L5.80435 46.48C5.55102 46.4483 5.32935 46.385 5.04435 46.385C4.06268 46.385 3.17602 46.7967 2.54268 47.43L0.0410156 49.9633L15.6843 65.6067C16.5393 66.4617 17.7427 67 19.041 67H40.5427C42.9177 67 44.7543 65.2583 45.1027 62.9467L47.4777 46.2583C47.5093 46.0367 47.541 45.815 47.541 45.625C47.541 43.6617 46.3377 41.9517 44.6594 41.255Z" fill="white"/>
</svg>
