<svg width="42" height="43" viewBox="0 0 42 43" fill="none" xmlns="http://www.w3.org/2000/svg">
<path d="M2.95454 37.3938L5.57871 38.6305V18.6892L0.81996 31.6301C0.0170436 33.8826 0.976627 36.4663 2.95454 37.3938ZM41.142 29.223L31.4287 2.78925C30.8216 1.133 29.392 0.117165 27.8841 0.072998C27.375 0.072998 26.8462 0.161332 26.337 0.404248L11.9041 7.13966C10.4354 7.82425 9.53454 9.41425 9.49538 11.1147C9.47579 11.7109 9.57371 12.3072 9.78913 12.8813L19.5025 39.3151C20.1095 40.9934 21.5587 42.0092 23.0862 42.0313C23.5954 42.0313 24.1045 41.9209 24.5941 41.7001L39.0075 34.9647C41.005 34.0372 41.9645 31.4534 41.142 29.223ZM13.4316 13.323C12.3545 13.323 11.4733 12.3292 11.4733 11.1147C11.4733 9.90008 12.3545 8.90633 13.4316 8.90633C14.5087 8.90633 15.39 9.90008 15.39 11.1147C15.39 12.3292 14.5087 13.323 13.4316 13.323ZM9.51496 37.6147C9.51496 40.0438 11.2775 42.0313 13.4316 42.0313H16.2712L9.51496 23.6138V37.6147Z" fill="white"/>
</svg>
